<svg width="134" height="130" viewBox="0 0 134 130" fill="none" xmlns="http://www.w3.org/2000/svg">
<path d="M13.8671 130C11.8248 130 9.81448 129.888 7.89719 129.67C3.18241 129.131 0.0126325 125.374 0.00731413 120.32C-0.00332271 106.991 -0.000666101 93.7611 0.00465232 79.0881C0.00731153 73.7312 3.26219 69.9394 8.30139 69.4292C9.92617 69.2645 11.6547 69.1821 13.4416 69.1821C15.5531 69.1821 17.7416 69.2937 20.1269 69.5196C23.7514 69.865 26.8281 72.8331 27.6126 76.7392C27.8758 78.0465 28.6018 78.6577 29.9021 78.6577H29.9686C31.0536 78.6417 32.2183 78.6364 33.532 78.6364C35.0158 78.6364 36.5023 78.6444 37.9862 78.655L38.5712 78.6577C38.9461 78.6603 39.8396 78.7427 39.9912 79.4575C40.1348 80.1271 39.9885 80.9535 39.7705 81.2192C39.5152 81.5274 38.7095 81.8064 37.9755 81.8436C37.0262 81.8915 35.9811 81.9127 34.6861 81.9127C34.0027 81.9127 33.3192 81.9074 32.6358 81.9021C31.9471 81.8968 31.2557 81.8915 30.5669 81.8915H30.3329C30.0138 81.8915 29.7054 81.9101 29.381 81.926C29.232 81.934 29.0805 81.9419 28.9183 81.9499L27.945 81.9924L27.9024 82.965C27.8945 83.1244 27.8865 83.2785 27.8785 83.4273C27.8599 83.7515 27.8439 84.0544 27.8439 84.3733C27.8439 86.9561 27.8439 89.5388 27.8439 92.1216C27.8466 99.575 27.8466 107.284 27.8147 114.862C27.8094 116.283 28.413 117.142 29.7772 117.647C32.1359 118.518 34.5318 119.427 36.8454 120.304C41.2729 121.98 45.8494 123.716 50.4073 125.291C52.8485 126.134 55.5529 126.274 57.6351 126.301C61.1027 126.346 64.8362 126.367 69.3808 126.367C72.2767 126.367 75.1725 126.36 78.0658 126.352C79.5735 126.346 81.084 126.344 82.5944 126.341C86.2774 126.333 89.9604 125.326 93.8561 123.259C104.331 117.702 115.164 111.867 126.059 105.915C127.32 105.227 128.569 104.066 129.484 102.734C130.463 101.308 130.787 99.6999 130.396 98.2066C129.99 96.6521 128.857 95.3475 127.203 94.529C125.708 93.7903 124.075 93.4157 122.344 93.4157C121.291 93.4157 120.196 93.5539 119.084 93.8302C114.308 95.01 109.484 96.3067 104.817 97.5609C103.248 97.9834 101.682 98.4032 100.113 98.8231C98.8023 99.1738 97.4913 99.5299 96.1803 99.8886C94.5369 100.338 92.8377 100.8 91.165 101.238C90.4949 101.414 89.8833 101.504 89.3461 101.504C81.5094 101.515 73.6754 101.517 65.8387 101.517H52.0826C52.0108 101.517 51.9417 101.517 51.8699 101.512C51.3248 101.475 50.0563 101.238 50.0829 99.8408C50.1015 98.8736 50.7291 98.3102 51.8034 98.2996C53.9334 98.2757 56.0395 98.2704 57.9994 98.2704H61.3393C62.4482 98.2704 63.5571 98.2704 64.6687 98.265C65.9956 98.2597 67.3651 98.2544 68.7319 98.1348C72.2953 97.824 74.8614 95.847 75.7788 92.7142C76.7893 89.2519 75.5634 84.7718 73.0984 82.9278C72.3272 82.3511 71.2449 81.9765 70.2078 81.9287C69.3409 81.8888 68.4261 81.8702 67.2428 81.8702C66.6817 81.8702 66.1206 81.8729 65.5622 81.8782C65.0064 81.8808 64.4506 81.8861 63.8948 81.8861H63.4002C62.9375 81.8835 62.5253 81.8755 62.1717 81.7985C61.3739 81.6257 60.8341 80.9747 60.8554 80.2148C60.8766 79.4894 61.3925 78.7294 62.2195 78.7161L63.2407 78.6975C64.44 78.6763 65.6792 78.6523 66.8944 78.6523C68.7984 78.6523 70.354 78.7081 71.7874 78.8277C73.8429 78.9978 75.6086 80.2201 77.0313 82.4548C79.9697 87.065 80.1639 91.6805 77.6217 96.5618L76.9516 97.8505L78.3849 98.1003C78.4726 98.1162 78.5577 98.1349 78.6402 98.1535C78.8742 98.2039 79.1401 98.2624 79.4432 98.2624C80.3234 98.2651 81.2063 98.2783 82.0891 98.2916C83.0731 98.3076 84.0915 98.3209 85.0967 98.3209C86.6284 98.3209 87.8889 98.2836 89.0642 98.2066C90.6146 98.1056 92.1117 97.6752 93.5583 97.2606C93.9732 97.1411 94.388 97.0241 94.8002 96.9125C97.6003 96.1659 100.398 95.4086 103.195 94.6513C107.902 93.3785 112.768 92.0605 117.566 90.8196C119.204 90.3971 120.794 90.1819 122.294 90.1819C124.025 90.1819 125.695 90.4689 127.264 91.0322C130.742 92.2864 132.806 94.4918 133.571 97.7788C133.614 97.9568 133.686 98.103 133.763 98.2172V100.898C132.768 104.706 130.247 107.499 125.607 109.938C120.198 112.781 114.728 115.728 109.442 118.574C104.828 121.058 100.057 123.628 95.348 126.118C90.9284 128.456 86.0381 129.641 80.818 129.641C80.6 129.641 80.3819 129.638 80.1639 129.636C76.0607 129.561 71.8937 129.548 67.865 129.535C63.4614 129.522 58.9062 129.506 54.4334 129.41C52.4629 129.367 50.4233 128.724 48.865 128.166C44.4666 126.593 40.0204 124.914 35.7205 123.288C33.9441 122.616 32.1678 121.946 30.3914 121.279C30.1415 121.186 29.9022 121.112 29.6469 121.034C29.5325 121 29.4155 120.965 29.2905 120.926L28.4316 120.652L28.0221 121.454C28.0008 121.497 27.9769 121.537 27.9556 121.574C27.8705 121.72 27.7508 121.919 27.6923 122.185C26.7005 126.564 23.8365 129.304 19.837 129.702C17.8267 129.899 15.819 130 13.8671 130ZM13.8645 72.4106C12.5083 72.4106 11.1521 72.4239 9.8331 72.4478C5.75387 72.5275 3.21698 75.1103 3.21432 79.1891C3.21166 83.9986 3.21166 88.8108 3.21166 93.6203V105.548C3.21166 110.371 3.209 115.194 3.21432 120.019C3.21698 124.056 5.83098 126.686 9.87564 126.721C11.0244 126.732 12.1732 126.734 13.322 126.734C14.6144 126.734 15.9067 126.729 17.1965 126.726L17.715 126.724C22.0415 126.71 24.6236 124.141 24.6236 119.855C24.6263 106.332 24.6263 92.8125 24.6236 79.2901C24.621 75.0811 22.1319 72.5222 17.965 72.4478C16.5848 72.4212 15.2047 72.4106 13.8645 72.4106Z" fill="#003E4B"/>
<path d="M67.5513 70.8377C58.5073 70.8058 50.0058 67.2531 43.6104 60.8307C37.215 54.4109 33.7155 45.9159 33.7527 36.908C33.8325 18.305 49.0246 3.17236 67.6204 3.17236H67.7613C86.3705 3.24942 101.483 18.4485 101.451 37.0542C101.419 55.6837 86.2641 70.8377 67.6709 70.8377H67.5513ZM67.631 6.38225C50.7371 6.38225 36.989 20.1199 36.9837 37.009C36.981 45.1719 40.1747 52.8565 45.9744 58.6491C51.7742 64.4392 59.4726 67.6278 67.6497 67.6278H67.6842C84.525 67.6092 98.2279 53.8795 98.2306 37.0223C98.2306 20.1651 84.5356 6.41945 67.6975 6.3849H67.631V6.38225Z" fill="#003E4B"/>
<path d="M15.2419 6.32145C14.5957 6.32145 13.8458 5.88833 13.7634 5.18683C13.6065 3.87418 13.5985 2.53496 13.7368 1.20902C13.8192 0.422493 14.5718 0 15.2393 0H15.2712C16.0982 0.0159431 16.6991 0.581924 16.8029 1.44285C16.8427 1.78297 16.8321 2.15764 16.8188 2.55621C16.8135 2.76082 16.8055 2.96542 16.8055 3.17003V4.21164H16.8507C16.8401 4.48002 16.8215 4.74042 16.7816 4.98754C16.6619 5.75547 16.0184 6.31614 15.2525 6.32145H15.2419Z" fill="#003E4B"/>
<path d="M15.2314 24.6448C14.5692 24.6448 13.8539 24.2569 13.7635 23.5128C13.6066 22.2268 13.5986 20.8929 13.7396 19.543C13.8193 18.7857 14.5613 18.334 15.234 18.334H15.2713C16.0876 18.3552 16.7046 18.9398 16.803 19.7901C16.8428 20.1329 16.8322 20.5076 16.8189 20.9061C16.8136 21.1107 16.8083 21.3153 16.8083 21.5173V22.5589H16.8508C16.8402 22.8273 16.8189 23.085 16.7817 23.3322C16.6647 24.0841 16.0929 24.5996 15.3271 24.6421C15.2952 24.6421 15.2633 24.6448 15.2314 24.6448Z" fill="#003E4B"/>
<path d="M5.34959 13.9848C5.16078 13.9741 4.96931 13.9688 4.77785 13.9608C4.34706 13.9476 3.94286 13.9343 3.56792 13.8678C2.77016 13.7297 2.23034 13.1105 2.22502 12.3267C2.2197 11.6544 2.65846 10.8944 3.47484 10.8068C4.1157 10.7377 4.76987 10.7031 5.42404 10.7031C6.02236 10.7031 6.62599 10.7324 7.21633 10.7908C8.19492 10.8865 8.52999 11.6943 8.51935 12.3559C8.50605 13.169 8.00347 13.7376 7.17379 13.8731C6.79885 13.9343 6.38666 13.9476 5.95321 13.9608C5.75377 13.9688 5.55169 13.9741 5.34959 13.9848Z" fill="#003E4B"/>
<path d="M24.9667 13.9896C24.8018 13.979 24.629 13.971 24.4508 13.9631C24.0227 13.9445 23.5812 13.9232 23.177 13.8435C22.4378 13.6973 21.9777 13.1181 21.9724 12.3289C21.9698 11.6885 22.2889 10.9073 23.193 10.8116C23.8285 10.7426 24.4827 10.708 25.1369 10.708C25.7352 10.708 26.3388 10.7372 26.9292 10.7957C27.9104 10.8914 28.2428 11.6965 28.2295 12.3581C28.2136 13.1739 27.711 13.7425 26.884 13.878C26.5143 13.9391 26.1128 13.9498 25.6501 13.9657C25.4294 13.971 25.2033 13.9763 24.9667 13.9896Z" fill="#003E4B"/>
<path d="M111.202 65.2096L110.138 65.1857C109.934 65.1857 109.729 65.191 109.522 65.199C109.338 65.2043 109.157 65.2096 108.974 65.2096C108.753 65.2096 108.575 65.199 108.418 65.1804C107.578 65.0741 106.95 64.3487 106.987 63.5329C107.027 62.6853 107.671 62.0662 108.554 62.029C109.04 62.0077 109.556 61.9971 110.088 61.9971C110.585 61.9971 111.098 62.005 111.654 62.0236C112.63 62.0555 113.282 62.6534 113.311 63.5462C113.34 64.439 112.643 65.1352 111.654 65.2043C111.519 65.2149 111.375 65.2176 111.199 65.2203V65.2096H111.202Z" fill="#003E4B"/>
<path d="M120.009 57.5603C119.307 57.5603 118.55 57.1404 118.462 56.3353C118.334 55.1529 118.329 53.8907 118.446 52.5834C118.52 51.7703 119.31 51.2681 119.999 51.2681H120.036C120.868 51.2893 121.515 51.9377 121.576 52.8119C121.589 53.0006 121.594 53.1972 121.592 53.3965H121.578L121.573 54.4593C121.573 54.6453 121.576 54.834 121.581 55.02C121.589 55.3973 121.597 55.756 121.57 56.0935C121.501 56.9465 120.922 57.5231 120.092 57.5576C120.068 57.5603 120.039 57.5603 120.009 57.5603Z" fill="#003E4B"/>
<path d="M130.904 65.2203V65.2044L129.841 65.1911C129.636 65.1911 129.428 65.1964 129.224 65.2044C129.04 65.2097 128.859 65.2176 128.676 65.2176C128.455 65.2176 128.28 65.207 128.123 65.1884C127.285 65.0795 126.66 64.3541 126.703 63.5356C126.745 62.7013 127.405 62.0689 128.272 62.0343C128.774 62.0131 129.301 62.0024 129.835 62.0024C130.327 62.0024 130.843 62.0104 131.372 62.029C132.351 62.0609 132.973 62.6455 132.994 63.5516C133.016 64.4683 132.417 65.114 131.465 65.2017C131.308 65.215 131.136 65.223 130.923 65.223C130.915 65.2203 130.91 65.2203 130.904 65.2203Z" fill="#003E4B"/>
<path d="M120.007 75.8947C119.294 75.8947 118.536 75.4988 118.446 74.6113C118.329 73.4607 118.326 72.2384 118.435 70.9789C118.504 70.1924 119.148 69.645 119.999 69.645C120.028 69.645 120.057 69.645 120.086 69.6477C120.967 69.6875 121.525 70.2721 121.581 71.2154C121.592 71.4094 121.597 71.606 121.597 71.8106H121.586L121.581 72.8735C121.581 73.0462 121.584 73.2189 121.586 73.3916C121.592 73.7424 121.6 74.0719 121.576 74.3854C121.512 75.2623 120.959 75.8389 120.132 75.8921C120.092 75.8947 120.049 75.8947 120.007 75.8947Z" fill="#003E4B"/>
<path d="M50.527 81.8546C49.6867 81.8334 48.9634 81.1053 48.9447 80.2683C48.9368 79.8485 49.0937 79.4525 49.3862 79.1523C49.6893 78.8414 50.1015 78.6687 50.543 78.666C50.9924 78.666 51.3992 78.8334 51.6997 79.1363C51.9949 79.4339 52.1545 79.8325 52.1492 80.2577C52.1412 81.1239 51.4152 81.8546 50.5642 81.8546H50.527Z" fill="#003E4B"/>
<path d="M67.865 53.6936C58.0764 53.481 52.1863 46.1499 50.6865 38.9622C50.4604 37.8807 50.9231 37.0835 51.8937 36.8789C52.0108 36.855 52.1251 36.8417 52.2394 36.8417C53.008 36.8417 53.6196 37.421 53.8376 38.3537C54.4652 41.0534 55.5581 43.3226 57.1803 45.2916C59.8847 48.5759 63.706 50.4598 67.6709 50.4598C71.8272 50.4598 75.7177 48.4165 78.3423 44.8505C79.6294 43.1021 80.4085 41.0348 81.1611 39.0339L81.2967 38.6752C81.6131 37.8382 82.1689 36.8364 83.0225 36.8364C83.1369 36.8364 83.2592 36.8524 83.3895 36.8816C83.8389 36.9879 84.166 37.2084 84.3628 37.5379C84.6234 37.9737 84.6606 38.6114 84.4692 39.3342C82.379 47.2021 77.7785 51.8097 70.4099 53.4199C69.7477 53.5634 69.0324 53.6113 68.458 53.6485C68.2346 53.6644 68.0352 53.6777 67.865 53.6936Z" fill="#003E4B"/>
<path d="M74.6967 25.9259C74.2606 25.9259 73.9335 25.8116 73.6968 25.5751C73.2873 25.1659 73.0639 24.3236 73.0666 23.2022V22.9658C73.0666 22.5433 73.0639 22.142 73.1197 21.7807C73.258 20.9011 73.8484 20.375 74.6967 20.375C74.7259 20.375 74.7525 20.375 74.7818 20.3777C75.6115 20.4095 76.1672 20.9676 76.2683 21.8657C76.2975 22.1181 76.2896 22.4051 76.2789 22.708C76.2736 22.8701 76.2683 23.0348 76.2683 23.1969C76.2869 24.3395 76.0795 25.1819 75.6833 25.5831C75.4625 25.8116 75.1381 25.9259 74.6967 25.9259Z" fill="#003E4B"/>
<path d="M60.5442 25.9261C59.7544 25.9261 59.0471 25.2777 58.9673 24.4806C58.8902 23.6994 58.8875 22.8517 58.954 21.8845C59.0205 20.9678 59.6454 20.3726 60.5522 20.3726H60.5921C61.5015 20.3912 62.0786 20.9943 62.1344 21.9908C62.1344 22.012 62.1371 22.036 62.1371 22.0599H62.1344L62.1264 23.1227C62.1264 23.2689 62.1291 23.415 62.1317 23.5612C62.1371 23.8455 62.1424 24.1165 62.1238 24.3663C62.0573 25.2565 61.4244 25.8969 60.5841 25.9234L60.5442 25.9261Z" fill="#003E4B"/>
</svg>
