<svg width="20" height="20" viewBox="0 0 20 20" fill="none" xmlns="http://www.w3.org/2000/svg">
<path d="M12.2036 10L19.6818 2.52146C19.8875 2.3156 20.001 2.04095 20.0013 1.74808C20.0013 1.45505 19.8878 1.18008 19.6818 0.974535L19.0264 0.31937C18.8204 0.113015 18.5458 0 18.2526 0C17.9599 0 17.6852 0.113015 17.4792 0.31937L10.001 7.79742L2.52244 0.31937C2.31674 0.113015 2.04192 0 1.74889 0C1.45619 0 1.18138 0.113015 0.975673 0.31937L0.320021 0.974535C-0.106674 1.40123 -0.106674 2.09526 0.320021 2.52146L7.79839 10L0.320021 17.4782C0.114154 17.6844 0.000813061 17.9591 0.000813061 18.2519C0.000813061 18.5448 0.114154 18.8194 0.320021 19.0255L0.975511 19.6806C1.18122 19.8868 1.45619 20 1.74873 20C2.04176 20 2.31657 19.8868 2.52228 19.6806L10.0008 12.2024L17.479 19.6806C17.6851 19.8868 17.9597 20 18.2524 20H18.2527C18.5456 20 18.8202 19.8868 19.0263 19.6806L19.6816 19.0255C19.8873 18.8196 20.0008 18.5448 20.0008 18.2519C20.0008 17.9591 19.8873 17.6844 19.6816 17.4784L12.2036 10Z" fill="#828282"/>
</svg>
