<svg width="25" height="15" viewBox="0 0 25 15" fill="none" xmlns="http://www.w3.org/2000/svg">
<path d="M1 6.5C0.447715 6.5 0 6.94772 0 7.5C0 8.05228 0.447715 8.5 1 8.5V6.5ZM24.2071 8.20711C24.5976 7.81658 24.5976 7.18342 24.2071 6.79289L17.8431 0.428932C17.4526 0.0384079 16.8195 0.0384079 16.4289 0.428932C16.0384 0.819456 16.0384 1.45262 16.4289 1.84315L22.0858 7.5L16.4289 13.1569C16.0384 13.5474 16.0384 14.1805 16.4289 14.5711C16.8195 14.9616 17.4526 14.9616 17.8431 14.5711L24.2071 8.20711ZM1 8.5H23.5V6.5H1V8.5Z" fill="#B08E70"/>
</svg>
