<svg width="130" height="130" viewBox="0 0 130 130" fill="none" xmlns="http://www.w3.org/2000/svg">
<path d="M64.5818 14.6934C63.206 14.6701 63.0508 13.3445 63.0483 12.776C63.0431 11.564 63.0482 10.3521 63.0534 9.13751C63.0637 6.94616 63.0741 4.68246 63.0146 2.44976C62.9836 1.26106 63.3017 0.532332 64.1008 0H65.0964C65.9007 0.472897 66.2084 1.13444 66.1826 2.28955C66.1334 4.54291 66.1412 6.82987 66.149 9.04189C66.1541 10.2745 66.1593 11.5072 66.1541 12.7424C66.1515 13.4711 65.9472 14.696 64.618 14.696L64.5818 14.6934Z" fill="#003E4B"/>
<path d="M35.5268 130C33.5433 130 31.6089 129.184 30.0805 127.703C28.1797 125.86 26.341 124 24.6212 122.253C23.9851 121.607 23.5972 120.63 24.4118 119.824C24.7118 119.527 25.048 119.377 25.4126 119.377C25.8755 119.377 26.385 119.625 26.8453 120.074C27.8642 121.072 28.8909 122.103 29.884 123.098C30.5124 123.728 31.1408 124.359 31.7718 124.984C33.0468 126.251 34.27 126.866 35.5113 126.866C36.7682 126.866 38.0121 126.235 39.3181 124.938C40.4456 123.814 41.5731 122.69 42.6955 121.563C45.2816 118.971 45.2894 116.847 42.7162 114.232C41.6042 113.102 40.4948 111.971 39.3853 110.841C36.4811 107.882 33.4761 104.825 30.5046 101.833C26.1677 97.471 21.7352 93.065 17.4474 88.8012L16.806 88.1629C16.1673 87.5272 15.4639 86.8993 14.7139 86.2946C14.0648 85.77 13.1984 85.4806 12.2778 85.4806C11.1735 85.4806 10.0899 85.8992 9.31152 86.6254C7.40039 88.4084 5.77114 90.0312 4.32551 91.5921C2.63161 93.4216 2.74539 95.9438 4.60997 97.8689C6.02716 99.3341 7.49866 100.786 8.92102 102.192L10.0046 103.265C10.7546 104.009 10.7132 104.575 10.5735 105.03C10.3408 105.789 9.66839 106.128 9.10462 106.128C8.84601 106.128 8.46069 106.058 8.10639 105.722C6.07113 103.802 3.76434 101.624 1.72649 99.298C-0.675995 96.5562 -0.557056 92.2433 1.99543 89.4757C3.79277 87.5298 5.47115 85.8527 7.13401 84.3539C8.61326 83.0179 10.2658 82.3383 12.0424 82.3383C12.8389 82.3383 13.6743 82.4752 14.5199 82.7466C14.9156 82.8732 15.2673 82.9352 15.5983 82.9352C16.5785 82.9352 17.2276 82.3951 17.6827 81.9274C19.4051 80.1521 21.1947 78.3768 22.9248 76.6583C23.6334 75.9529 24.3419 75.25 25.0505 74.5445C25.1592 74.436 25.229 74.33 25.2911 74.237C25.3143 74.2034 25.3428 74.1621 25.379 74.1104L25.8807 73.4075L25.2755 72.7899C23.023 70.4874 22.1981 68.0092 22.7515 65.2132C23.3127 62.3862 25.0221 60.4015 27.9832 59.1482L29.0745 58.6857L28.4668 57.6675C26.9487 55.1273 26.6901 52.6827 27.6806 50.1916C28.6737 47.6927 30.5874 46.0492 33.37 45.3128L34.27 45.075L34.1278 44.1551C33.3054 38.8524 35.2656 35.5835 40.3008 33.8624L41.1594 33.5679L40.9809 32.6789C40.3835 29.7175 40.8878 27.3427 42.5274 25.4227C44.211 23.451 46.1919 22.4922 48.5893 22.4922C49.2565 22.4922 49.9625 22.5698 50.6866 22.7222L50.7874 22.7429C51.0383 22.7972 51.3486 22.8644 51.659 22.8644C52.0598 22.8644 52.3934 22.7507 52.6494 22.5258C53.7201 21.5904 54.9666 21.1562 56.5725 21.1562C57.5604 21.1562 58.6104 21.3216 59.5052 21.4818C62.549 22.0297 65.642 22.6215 68.6316 23.1925C71.1168 23.668 73.6848 24.159 76.2166 24.6242C76.8217 24.7353 77.4114 24.7482 77.9829 24.7637C78.4562 24.774 78.9035 24.787 79.3199 24.8516C83.9568 25.5803 86.7912 29.5185 86.0619 34.2165C86.0309 34.4206 86.0153 34.6144 85.9972 34.8186C85.9895 34.909 85.9817 35.0021 85.9739 35.1054L85.899 35.8962L86.6438 36.1727C91.7332 38.0565 93.6185 41.1859 92.7599 46.3206L92.6151 47.1888L93.4504 47.4705C98.3898 49.1399 100.397 52.4941 99.5872 57.7295L99.4476 58.6288L100.324 58.8795C103.521 59.7968 105.546 61.7479 106.34 64.6834C107.136 67.6242 106.337 70.2962 103.898 72.8467L103.2 73.5781L105.527 75.8986C107.811 78.1778 109.965 80.3304 112.2 82.5088C112.487 82.7879 112.908 82.9378 113.415 82.9378C113.723 82.9378 114.038 82.8835 114.297 82.7879C115.437 82.3615 116.537 82.147 117.563 82.147C119.64 82.147 121.494 82.9998 123.235 84.757C123.783 85.31 124.339 85.8605 124.895 86.4083C125.702 87.2042 126.534 88.0285 127.328 88.8529C130.486 92.1244 130.494 96.6156 127.349 99.7734C118.463 108.704 109.127 118.02 99.6053 127.468C98.095 128.966 96.1735 129.791 94.1926 129.791C92.1935 129.791 90.2359 128.956 88.679 127.439C87.2877 126.083 85.7981 124.617 84.3189 123.088C81.9267 120.612 81.3448 117.816 82.537 114.542C82.7879 113.849 82.6534 112.694 82.0483 112.077C78.6579 108.606 75.1925 105.177 72.5521 102.577C72.0944 102.125 71.3935 101.82 70.7651 101.794C69.5729 101.75 68.3626 101.724 67.1937 101.701C65.4946 101.668 63.7386 101.631 62.0266 101.533C61.7499 101.518 61.4784 101.51 61.2198 101.51C58.5147 101.51 56.4691 102.412 54.7778 104.35C53.0709 106.306 51.1417 108.159 49.2772 109.95C48.6746 110.531 48.0694 111.11 47.472 111.697C46.6005 112.547 46.448 113.418 46.9703 114.513C48.3824 117.464 47.8832 120.651 45.6385 123.033C44.0506 124.718 42.4395 126.328 40.849 127.819C39.3439 129.222 37.4535 130 35.5268 130ZM117.395 85.2377C116.216 85.2377 115.086 85.7416 114.129 86.6951C105.152 95.6207 95.8529 104.9 86.4912 114.281C84.58 116.196 84.5645 118.808 86.4524 120.78C87.8747 122.268 89.398 123.84 91.0013 125.271C91.5651 125.775 92.2401 126.088 92.8918 126.387C93.1711 126.517 93.4607 126.651 93.74 126.798L94.2469 127.067L94.7434 126.78C95.0253 126.617 95.3253 126.468 95.6149 126.323C96.2847 125.99 96.9778 125.643 97.539 125.085C107.622 115.095 117.517 105.2 125.011 97.6958C127.052 95.6517 127.07 93.0883 125.055 91.0055C123.7 89.6023 122.288 88.1939 120.736 86.7055C119.736 85.7467 118.58 85.2377 117.395 85.2377ZM79.0923 93.8532C79.444 93.8532 79.7699 93.9927 80.0621 94.2718C80.7836 94.9566 80.6931 95.8171 79.7983 96.8275C79.007 97.7191 78.27 98.6468 77.5562 99.5409C77.251 99.9233 76.951 100.301 76.6536 100.668L76.0666 101.391L85.3817 110.717L110.423 85.5969L100.498 75.604L99.7734 76.5188C99.6415 76.6842 99.5096 76.8625 99.3726 77.046C99.0855 77.431 98.7881 77.829 98.4622 78.1571C98.1209 78.5008 97.7718 78.6688 97.3968 78.6688C97.2209 78.6688 97.0321 78.6326 96.8356 78.5603C96.2951 78.3639 95.9382 77.9866 95.827 77.5008C95.7003 76.9529 95.9072 76.3508 96.396 75.8469C97.2519 74.9606 98.1493 74.0742 99.0131 73.2189C100.042 72.2007 101.105 71.149 102.127 70.0765C103.955 68.1539 103.971 65.2855 102.163 63.4043C101.229 62.4327 99.9984 61.8978 98.6976 61.8978C97.5157 61.8978 96.3442 62.35 95.3951 63.1743C94.9012 63.6033 94.4512 64.0633 94.0142 64.5077C93.7581 64.7687 93.5021 65.0297 93.2383 65.283C92.747 65.7559 92.2194 66.0143 91.7565 66.0143C91.3841 66.0143 91.0375 65.8489 90.7272 65.5207C89.7755 64.5155 90.7324 63.3888 91.0479 63.0658C91.5677 62.536 92.0953 62.0166 92.6228 61.4946C93.5228 60.6057 94.4512 59.6883 95.3331 58.7373C97.1847 56.7398 97.1433 53.8249 95.24 51.9566C94.3193 51.0547 93.1323 50.5586 91.8909 50.5586C90.6651 50.5586 89.4497 51.0495 88.4721 51.9385C87.9601 52.4062 87.4739 52.8972 87.0032 53.3753C86.7214 53.6621 86.4395 53.9464 86.1524 54.2254C85.6429 54.7216 85.0895 54.9955 84.5956 54.9955C84.2361 54.9955 83.9051 54.8508 83.6128 54.5614C82.6198 53.582 83.4939 52.4734 83.918 52.0444C84.4792 51.4733 85.0585 50.8997 85.6222 50.3441C86.5998 49.3776 87.6109 48.3801 88.5652 47.3465C90.4065 45.3541 90.3393 42.4418 88.4101 40.5735C87.5101 39.7 86.336 39.2194 85.1076 39.2194C83.8482 39.2194 82.6146 39.7233 81.6345 40.6406C81.1897 41.0567 80.7604 41.4908 80.3492 41.9094C79.9897 42.2738 79.6173 42.6511 79.2449 43.0051C78.7975 43.4289 78.2958 43.6615 77.8303 43.6615C77.445 43.6615 77.0984 43.5064 76.8036 43.2041C76.139 42.5219 76.2399 41.6071 77.0726 40.7569C77.8691 39.9455 78.6941 39.1263 79.4906 38.3382C80.1138 37.7206 80.7371 37.1004 81.3577 36.4776C83.5611 34.2578 83.6904 31.3093 81.6732 29.304C80.7371 28.3737 79.594 27.8828 78.3631 27.8828C77.0105 27.8828 75.6373 28.503 74.4968 29.6296C73.6512 30.4643 72.8133 31.3042 71.9754 32.144C70.7702 33.3508 69.5264 34.6015 68.2824 35.8031C67.3023 36.7515 67.1238 37.6844 67.685 38.9196C68.7505 41.2686 68.616 43.9122 67.3126 46.1733C66.0532 48.3595 63.93 49.7549 61.4887 50.0004C59.6966 50.1813 59.3293 51.2537 59.2052 52.277C58.7656 55.9103 55.9364 58.7038 52.3236 59.0707C51.3926 59.1663 50.3038 59.4919 50.1435 61.1923C49.8435 64.3785 47.6298 67.0092 44.498 67.8878C43.9886 68.0299 43.4558 68.1229 42.8895 68.2185C42.6205 68.2651 42.3516 68.309 42.0878 68.3607L41.3792 68.4976L41.2628 69.2083C40.4224 74.3662 37.6992 77.2088 33.6002 77.2088C32.2942 77.2088 30.8667 76.9219 29.3564 76.3534C29.0875 76.2526 28.8133 76.2294 28.6323 76.2294C28.3375 76.2294 27.7815 76.2862 27.3884 76.6738C25.1954 78.8316 23.0282 81.0049 20.9309 83.1058L18.7792 85.2635L44.048 110.629L44.7799 109.939C44.8549 109.867 44.9377 109.792 45.0204 109.715C45.2273 109.523 45.4549 109.314 45.6721 109.097C46.4014 108.371 47.1307 107.645 47.8625 106.919C49.9056 104.89 52.0158 102.789 54.0718 100.701C55.2898 99.4633 56.72 98.763 58.4475 98.5537C59.275 98.4529 60.1698 98.4064 61.181 98.4064C61.5068 98.4064 61.8301 98.4116 62.1559 98.4193C63.2085 98.4478 64.2895 98.5098 65.3317 98.5718C66.3997 98.6338 67.504 98.6984 68.5979 98.7269C68.7505 98.7294 68.9005 98.732 69.0531 98.732C72.5185 98.732 75.0839 97.6053 76.8967 95.2874C77.0234 95.1272 77.1993 94.9618 77.3881 94.7861C77.4657 94.7137 77.5407 94.6439 77.6157 94.5716C78.0889 94.1116 78.6191 93.8532 79.0923 93.8532ZM30.5693 61.828C29.1935 61.828 27.7556 62.5386 26.8143 63.6808C25.3531 65.4587 25.3557 68.0738 26.8194 69.7613C27.8849 70.9913 29.0331 72.1206 30.2279 73.1207C31.0632 73.8184 32.0511 74.1879 33.0856 74.1879C33.833 74.1879 34.5933 73.9993 35.3407 73.6272C37.0604 72.7718 37.963 71.2317 38.025 69.0481L38.0302 68.8853L37.9836 68.7302C37.9707 68.6837 37.963 68.6191 37.9526 68.5467C37.8854 68.1255 37.7845 67.4872 37.3319 66.9937C37.1173 66.7611 36.9052 66.5259 36.6906 66.2908C35.5113 64.991 34.2881 63.6446 32.8425 62.567C32.1908 62.0838 31.4046 61.828 30.5693 61.828ZM35.1596 48.2561C33.9053 48.2561 32.6614 48.76 31.7434 49.636C29.8866 51.4087 29.6771 54.259 31.2753 55.9904C33.6649 58.5771 36.3027 61.2181 39.3439 64.0607C40.1042 64.7713 41.0585 65.146 42.1033 65.146C42.8947 65.146 43.7325 64.9264 44.5316 64.5103C46.1066 63.6886 47.0195 62.2621 47.2393 60.2697L47.2703 59.9984L47.1617 59.7477C47.079 59.5565 47.0065 59.3369 46.929 59.1043C46.7272 58.497 46.4997 57.8122 45.9876 57.2747C42.8843 54.0213 40.456 51.5922 38.1104 49.3957C37.3216 48.6592 36.2768 48.2561 35.1596 48.2561ZM41.8938 36.9376C40.6163 36.9376 39.3956 37.457 38.4595 38.3976C36.5587 40.3099 36.5639 43.2248 38.4698 45.1758C42.0749 48.8659 45.1032 51.8765 47.9996 54.6518C48.6332 55.2591 49.4608 55.5744 50.0064 55.7837C50.1513 55.8379 50.3013 55.8948 50.3711 55.931L50.609 56.0498L50.8754 56.0395C53.358 55.9387 54.8942 55.0472 55.7036 53.2383C56.5751 51.2925 56.2622 49.3492 54.8502 47.9046C51.3693 44.3489 48.2272 41.2169 45.2454 38.3278C44.3196 37.4337 43.13 36.9376 41.8938 36.9376ZM48.6203 25.6294C46.0859 25.6294 43.9213 27.7019 43.5851 30.4514L43.5438 30.7977L43.7196 31.1C43.8826 31.3765 44.0325 31.6711 44.1929 31.9812C44.573 32.7254 44.9687 33.4929 45.5816 34.1415C47.4772 36.1365 49.4634 38.1004 51.3823 39.9998C52.0908 40.7001 52.7994 41.4004 53.5028 42.1033C53.8313 42.4289 54.1546 42.757 54.4804 43.0852C55.3261 43.938 56.2002 44.8192 57.1001 45.6564C58.0389 46.5299 59.1535 46.9899 60.3224 46.9899C60.9586 46.9899 61.6077 46.8555 62.2568 46.5919C64.0309 45.8683 65.0575 44.4342 65.2256 42.4444C65.3782 40.607 64.7084 39.5191 62.9059 38.6922C57.6225 36.2605 54.0459 32.6402 51.9719 27.6295C51.6538 26.862 50.9116 26.1462 50.1668 25.893C49.6651 25.7172 49.1427 25.6294 48.6203 25.6294ZM54.6485 25.632C56.345 30.7615 59.9552 33.4878 62.9085 35.2941L63.6041 35.7204L72.3116 26.9835L70.2893 26.6785C68.5773 26.4201 66.8988 26.079 65.1248 25.7198C62.1171 25.1074 59.0035 24.4743 55.6907 24.2779L54.1675 24.1874L54.6485 25.632Z" fill="#003E4B"/>
<path d="M32.0589 13.2517C31.896 13.2517 31.7201 13.2259 31.534 13.1742C31.2495 13.0967 30.9004 12.8719 30.5952 12.5721C27.9082 9.93112 24.7377 6.79656 21.593 3.58707C21.3628 3.35191 21.1715 2.99013 20.9284 2.52757C20.8792 2.43454 20.8275 2.33634 20.7732 2.23556C20.8275 2.15804 20.8818 2.08051 20.9335 2.00299C21.2697 1.51976 21.5594 1.10371 21.8904 0.863387C22.0714 0.731596 22.2602 0.666992 22.4671 0.666992C22.7593 0.666992 23.08 0.801367 23.3722 1.04169C23.9231 1.4965 24.43 2.01074 24.9679 2.55341C25.123 2.71104 25.2808 2.86868 25.4359 3.02372L26.9669 4.54578C28.9168 6.48388 30.934 8.48659 32.8917 10.4764C33.2615 10.8511 33.7993 11.6108 33.2563 12.4868C32.8347 13.1742 32.3718 13.2517 32.0589 13.2517Z" fill="#003E4B"/>
<path d="M97.3398 13.3008C97.151 13.3008 96.9699 13.2466 96.7812 13.1354C96.4475 12.9365 96.1269 12.4972 95.7881 12.0294C95.7286 11.9467 95.6666 11.864 95.6045 11.7788C95.6614 11.6728 95.7157 11.5695 95.7674 11.4713C96.0105 11.0061 96.2019 10.6366 96.4294 10.4066C99.5147 7.25395 102.584 4.20984 105.445 1.38796C105.876 0.961576 106.365 0.729004 106.823 0.729004C107.203 0.729004 107.563 0.891804 107.863 1.19932C108.509 1.86344 108.437 2.78598 107.682 3.55088C105.644 5.61044 103.554 7.69325 101.534 9.7063C100.544 10.6934 99.5535 11.6806 98.563 12.6703C98.1518 13.0734 97.7173 13.3008 97.3398 13.3008Z" fill="#003E4B"/>
<path d="M16.7931 114.043C15.9346 114.027 15.2854 113.371 15.2828 112.515C15.2828 112.118 15.4561 111.714 15.7587 111.412C16.0561 111.115 16.444 110.944 16.8267 110.944H16.8629C17.6827 110.968 18.3784 111.683 18.3784 112.51C18.3784 112.929 18.2258 113.317 17.9465 113.596C17.6595 113.882 17.2612 114.04 16.8267 114.04L16.7931 114.043Z" fill="#003E4B"/>
<path d="M87.1764 88.7523C86.3282 88.7523 85.6739 88.1115 85.6532 87.2613C85.6428 86.8323 85.8006 86.4292 86.1006 86.1191C86.3929 85.8193 86.7808 85.6514 87.192 85.6514C88.0014 85.6514 88.7333 86.3646 88.7592 87.1812C88.7721 87.5765 88.6221 87.959 88.335 88.2588C88.0324 88.574 87.6238 88.7498 87.1868 88.7523H87.1764Z" fill="#003E4B"/>
</svg>
