<svg width="130" height="130" viewBox="0 0 130 130" fill="none" xmlns="http://www.w3.org/2000/svg">
<path d="M103.44 129.997H62.2487C47.1615 129.997 32.0743 129.997 16.9871 129.997L16.4803 130C16.2838 130 16.0537 129.995 15.8469 129.966C15.0065 129.848 14.4144 129.23 14.4066 128.463C14.3989 127.708 14.991 127.07 15.8132 126.946C16.0511 126.91 16.32 126.905 16.5501 126.905L17.075 126.907C23.2185 126.905 29.3646 126.905 35.508 126.905H48.9662V120.347C48.9662 118.913 48.9636 117.48 48.9688 116.046C48.9714 115.196 49.1757 113.769 50.5021 113.769H50.5305C51.7898 113.787 52.0586 115.048 52.0586 116.105C52.0612 118.061 52.0612 120.017 52.0612 121.973V126.838H63.42V117.97C63.42 107.194 63.42 96.4149 63.4277 85.6384C63.4277 85.1578 63.4458 84.6023 63.5802 84.1528C63.7768 83.4887 64.2293 83.1658 64.961 83.1658H65.0075C65.7186 83.1787 66.1684 83.5042 66.3469 84.1321C66.4865 84.6281 66.5046 85.2069 66.5072 85.7598C66.515 96.4975 66.515 107.235 66.515 117.973V126.825H77.8736C77.8736 126.825 77.8736 43.8449 77.8736 43.6408C77.8814 41.6488 78.277 41.2457 80.2344 41.2457C84.7153 41.2431 89.1988 41.2431 93.6797 41.2431H109.524C110.01 41.2431 110.486 41.2483 110.962 41.2535C111.446 41.2586 111.929 41.2638 112.413 41.2638C113.323 41.2638 114.065 41.2457 114.745 41.2044C117.68 41.0313 119.911 38.9101 120.169 36.0396C120.415 33.2984 118.657 30.8025 115.986 30.1024C115.301 29.9215 114.595 29.8982 113.938 29.8982C93.9485 29.8931 73.959 29.8905 53.9695 29.8905C41.3128 29.8905 28.6561 29.8905 15.9994 29.8931C12.7932 29.8931 10.5696 31.4975 9.89472 34.2957C9.27158 36.8793 10.6058 39.5999 12.9949 40.6179C14.1481 41.1088 15.415 41.2173 16.2761 41.2199C23.0608 41.2406 29.8713 41.2431 35.6399 41.2431L49.442 41.2406C51.7665 41.2406 52.0612 41.5377 52.0612 43.8914C52.0612 60.569 52.0612 77.2492 52.0612 93.9268C52.0612 96.4769 51.0735 96.4898 50.5435 96.4975H50.5021C49.8299 96.4975 49.5687 96.2495 49.4161 96.0325C49.2119 95.7431 48.9688 95.1334 48.9688 93.8829V44.4211H18.3368C18.3368 44.4211 27.9373 70.9476 30.872 78.3705C32.3225 82.0341 32.0096 85.5531 29.892 89.4415C27.1202 94.5314 21.768 97.6912 15.9219 97.6938C14.9807 97.6938 14.0343 97.6111 13.1035 97.4457C6.492 96.2728 1.19143 90.9736 0.154591 84.2199C-0.137586 82.3132 0.0641214 81.0601 0.11842 80.9154C4.43385 69.2966 13.5094 44.2609 13.5094 44.2609L12.7156 43.9095C12.5682 43.8449 12.4312 43.7855 12.2994 43.7286C12.0537 43.6227 11.8287 43.5245 11.609 43.4212C9.47841 42.4058 7.83395 40.5197 7.09705 38.2513C6.35756 35.9699 6.57219 33.5696 7.70211 31.4898C9.42414 28.3274 12.139 26.7901 16.0045 26.7901C21.1965 26.7953 26.3756 26.7978 31.552 26.7978L55.1769 26.7953L53.9772 25.152C53.8557 24.9867 53.7575 24.8497 53.6721 24.7309C53.5092 24.5035 53.3903 24.3433 53.2688 24.1857C50.5332 20.6694 49.4601 16.21 50.3237 11.9469C51.1769 7.74326 53.8531 4.10804 57.6721 1.97392C58.7788 1.35643 60.0354 0.966293 61.3644 0.555489C61.9281 0.382383 62.5098 0.201526 63.0838 0H66.8563C67.4406 0.206694 68.0353 0.392718 68.6119 0.570991C69.9693 0.994713 71.2518 1.39518 72.374 2.03593C76.2137 4.22689 78.7915 7.76652 79.6319 12.0012C80.4722 16.2384 79.3888 20.6823 76.6584 24.1961C76.5369 24.3537 76.4205 24.5165 76.2628 24.7387C76.1801 24.8549 76.0844 24.9918 75.9655 25.1546L74.789 26.7901L98.6802 26.7875C103.771 26.7875 108.862 26.7901 113.954 26.7953C118.238 26.8004 121.628 29.0844 122.802 32.7532C124.229 37.2126 122.235 41.6669 117.954 43.584C117.793 43.6563 117.633 43.7312 117.449 43.8191L116.371 44.3255C116.371 44.3255 125.966 70.7926 128.976 78.4351C130.411 82.0807 130.08 85.597 127.932 89.4984C125.144 94.5598 119.826 97.7041 114.054 97.7041C112.989 97.7041 111.924 97.593 110.89 97.3734C103.846 95.88 98.7061 90.1339 98.0985 83.0754C98.0183 82.1504 98.1709 81.0782 98.5174 80.1326C101.607 71.6969 111.676 44.3926 111.676 44.3926H81.0385V126.9H103.402C103.492 126.9 103.924 126.897 103.924 126.897C104.074 126.897 104.268 126.9 104.446 126.92C105.343 127.021 105.977 127.644 105.985 128.434C105.992 129.227 105.374 129.858 104.48 129.969C104.299 129.992 104.102 129.995 103.934 129.995L103.44 129.997ZM101.54 84.5558C102.574 90.1029 108.076 94.6166 113.804 94.6166C113.938 94.6166 114.073 94.614 114.207 94.6089C120.283 94.3841 125.767 89.8472 126.432 84.4938L126.577 83.3337H101.312L101.54 84.5558ZM3.47975 84.5816C4.47522 90.1159 9.97743 94.6166 15.746 94.6166C15.8727 94.6166 16.002 94.614 16.1287 94.6089C22.1816 94.397 27.6709 89.8756 28.3639 84.53L28.5139 83.3647H3.26253L3.47975 84.5816ZM101.791 80.1274H126.217L114.005 47.4879L101.791 80.1274ZM3.72537 80.1093H28.1364L15.9296 47.4853L3.72537 80.1093ZM64.8265 3.10557C58.6003 3.10557 53.3515 8.31684 53.1239 14.7192C53.0154 17.7266 54.1375 20.6409 56.281 22.9249C58.4943 25.2838 61.6074 26.6919 64.8188 26.7823C64.9248 26.7849 65.0282 26.7875 65.1342 26.7875C71.3449 26.7875 76.5834 21.5711 76.811 15.1584C77.0333 8.87491 71.7405 3.35877 65.2531 3.11332C65.1109 3.10816 64.9688 3.10557 64.8265 3.10557Z" fill="#003E4B"/>
<path d="M50.5099 106.817C50.1117 106.817 49.729 106.656 49.4343 106.365C49.1421 106.078 48.9844 105.706 48.9844 105.323C48.987 104.533 49.7135 103.814 50.5125 103.814C50.8952 103.814 51.2856 103.985 51.5804 104.28C51.8752 104.571 52.0432 104.954 52.0407 105.328C52.0407 106.122 51.327 106.817 50.5099 106.817Z" fill="#003E4B"/>
<path d="M113.995 129.977C113.63 129.975 113.248 129.799 112.945 129.494C112.645 129.192 112.475 128.809 112.477 128.445C112.482 127.68 113.237 126.926 114 126.926C114.778 126.931 115.531 127.688 115.526 128.455C115.521 129.22 114.766 129.975 114.003 129.975H113.995V129.977Z" fill="#003E4B"/>
</svg>
