<svg width="131" height="130" viewBox="0 0 131 130" fill="none" xmlns="http://www.w3.org/2000/svg">
<path d="M22.2396 121.71C19.7622 121.71 17.3908 120.783 15.5625 119.101C12.343 116.137 11.4741 111.408 13.4498 107.599C14.1273 106.294 14.0316 105.266 13.1162 104.051C5.54697 93.9709 1.20508 82.4797 0.212052 69.8955C0.186192 69.5647 0.11637 69.2546 0.05172 68.9833C0.033618 68.9084 0.018102 68.8308 0 68.7559V60.9392C0.1293 60.0322 0.250842 59.1252 0.369798 58.2157C0.628397 56.2621 0.897341 54.2414 1.26197 52.2853C6.11589 26.3675 27.6753 5.27918 53.6957 1.0026C55.3507 0.731281 57.0523 0.511638 58.6996 0.299748C59.4599 0.201554 60.2227 0.103361 60.983 0H69.1004L70.8382 0.237731C72.6976 0.490966 74.5569 0.746785 76.4137 1.00519C76.7912 1.05687 77.1946 1.13439 77.7273 1.25067C78.7876 1.48323 79.3798 2.21968 79.2014 3.08017C78.9712 4.18613 77.8825 4.305 77.4248 4.305C77.3136 4.305 77.1998 4.29983 77.0834 4.28691C75.9327 4.16546 74.7509 4.01042 73.6104 3.86054C70.9494 3.5117 68.1979 3.15252 65.4697 3.15252C65.149 3.15252 64.831 3.15769 64.5103 3.16802C52.1958 3.56596 41.3475 6.58928 32.2707 12.1527C23.0387 17.8091 15.5625 26.1426 10.0466 36.9181C4.41688 47.9131 2.05587 59.0658 3.0282 70.0583C3.98244 80.7768 8.10969 91.4747 15.3039 101.852C15.5031 102.139 15.7177 102.41 15.8573 102.589C15.9013 102.643 15.9375 102.689 15.966 102.726L16.3513 103.229L16.9745 103.116C17.6106 103 18.2287 102.863 18.8235 102.728C20.0492 102.454 21.2078 102.196 22.3275 102.173C22.3896 102.173 22.4542 102.17 22.5163 102.17C26.7521 102.17 30.5174 105.121 31.6733 109.346C32.8086 113.493 31.0268 117.982 27.3418 120.263C25.8083 121.209 24.0446 121.71 22.2396 121.71ZM22.2163 105.217C18.5468 105.217 15.5341 108.191 15.4979 111.845C15.4798 113.638 16.1754 115.336 17.4529 116.625C18.7304 117.912 20.419 118.623 22.2111 118.623H22.2577C25.9272 118.597 28.914 115.584 28.9115 111.904C28.9115 108.23 25.9169 105.23 22.237 105.217H22.2163Z" fill="#003E4B"/>
<path d="M65.0663 110.901C62.4441 110.901 59.8219 110.896 57.1997 110.883C55.9842 110.878 55.4774 110.351 55.4541 109.067C55.4464 108.586 55.4489 108.087 55.4541 107.607C55.4593 106.808 55.467 105.984 55.4179 105.157C55.3765 104.47 54.8749 103.542 54.1378 103.242C51.8001 102.291 49.4443 101.379 46.9514 100.415C46.2221 100.134 44.068 99.299 44.068 99.299L43.5896 99.808C43.3568 100.056 43.106 100.33 42.8422 100.617C42.2112 101.302 41.4975 102.077 40.7579 102.813C40.2355 103.333 39.7597 103.599 39.3459 103.599C38.9374 103.599 38.4693 103.34 37.9598 102.834C33.9981 98.8984 30.4501 95.348 27.1142 91.9862C26.1367 91.0016 26.1418 90.291 27.1297 89.2729C27.7839 88.5985 28.4434 87.9292 29.1054 87.2626C29.4519 86.9137 29.7984 86.5623 30.1424 86.2134L30.6104 85.738L30.582 85.6656L30.6828 85.5338L30.4087 84.9421L30.1243 84.3684H30.0829L29.5864 83.0842C28.6166 80.5751 27.7012 78.2029 26.734 75.8101C26.447 75.0995 25.5496 74.6266 24.8799 74.593C24.2799 74.562 23.6981 74.5594 23.2559 74.5594C23.0102 74.5594 22.7645 74.5594 22.5189 74.562C22.2758 74.5646 22.0353 74.5646 21.7922 74.5646C21.4793 74.5646 21.169 74.562 20.8561 74.5543C19.6768 74.5258 19.1234 73.9832 19.1183 72.8514C19.095 67.5283 19.0976 62.2388 19.1209 57.1327C19.126 55.9208 19.6536 55.4169 20.9414 55.3937C21.125 55.3911 21.3086 55.3885 21.4922 55.3885C21.7715 55.3885 22.0508 55.3911 22.3301 55.3937C22.6171 55.3963 22.9042 55.3988 23.1886 55.3988C23.861 55.3988 24.3782 55.3833 24.8669 55.3446C25.6221 55.2877 26.478 54.6469 26.778 53.9208C27.6986 51.6804 28.5856 49.4065 29.5217 47.0007C29.8165 46.2436 30.1191 45.4684 30.432 44.6699L30.6854 44.0214L30.1786 43.5433C29.92 43.3004 29.6407 43.0394 29.3485 42.7681C28.6632 42.1298 27.8848 41.4089 27.1504 40.6724C26.1651 39.6828 26.1599 38.9515 27.1323 37.9721C30.6208 34.463 34.2722 30.8144 37.9857 27.1295C38.5029 26.6153 38.971 26.3569 39.377 26.3569C39.7856 26.3569 40.2588 26.6205 40.7863 27.1425C41.4975 27.8453 42.1931 28.5792 42.8655 29.2898C43.1629 29.6025 43.4551 29.9125 43.7473 30.2149L44.2438 30.7317L44.9032 30.45C45.6661 30.1244 46.4083 29.7963 47.1427 29.4733C48.7616 28.7626 50.2899 28.0908 51.857 27.4913L52.0328 27.4241C55.2059 26.2096 55.4619 25.8298 55.4619 22.3568V21.4576C55.467 19.4214 55.7981 19.088 57.8074 19.088C60.4451 19.088 63.0595 19.0854 65.6766 19.0854C67.9574 19.0854 70.2357 19.0854 72.514 19.0906C74.1897 19.0932 74.6293 19.5196 74.65 21.1656C74.6552 21.5429 74.6164 21.9666 74.5776 22.4163C74.469 23.6411 74.3552 24.9099 75.0327 25.8892C75.6818 26.8272 76.8455 27.1347 77.9704 27.4319C78.4514 27.5585 78.9039 27.6774 79.2763 27.835L79.3177 27.8531C80.8357 28.4965 82.4054 29.1632 83.838 29.9642C84.3475 30.2485 84.7871 30.3803 85.2241 30.3803C86.1034 30.3803 86.693 29.8273 87.0628 29.4112C87.8024 28.5766 88.6428 27.7781 89.4548 27.0081C89.9125 26.574 90.3444 26.3543 90.7375 26.3543C91.128 26.3543 91.5521 26.5766 91.9943 27.0133C95.6483 30.6232 99.3618 34.3287 103.031 38.0316C103.944 38.9541 103.931 39.6879 102.985 40.6492C102.258 41.3882 101.48 42.1169 100.792 42.7578C100.494 43.0343 100.21 43.3004 99.9436 43.5536L99.4445 44.0291L100.474 46.7113C101.475 49.3212 102.418 51.7838 103.406 54.2464C103.717 55.019 104.689 55.3394 105.229 55.3627C105.824 55.3859 106.406 55.3911 106.846 55.3911C107.094 55.3911 107.342 55.3911 107.59 55.3885C107.836 55.3885 108.082 55.3859 108.327 55.3859C108.594 55.3859 108.86 55.3885 109.124 55.3911C110.479 55.4118 110.986 55.9053 110.991 57.2077C111.007 62.1535 111.007 67.2105 110.991 72.6731C110.986 74.0452 110.479 74.5388 109.052 74.5594C108.909 74.562 108.767 74.562 108.627 74.562C108.34 74.562 108.056 74.5594 107.769 74.5543C107.474 74.5517 107.182 74.5465 106.887 74.5465C106.233 74.5465 105.726 74.562 105.248 74.6008C104.49 74.6602 103.631 75.2881 103.334 76.0039C103.018 76.7636 102.747 77.5414 102.486 78.2908C102.222 79.0479 101.974 79.7611 101.681 80.4665C101.278 81.4381 100.8 82.4149 100.293 83.4485C100.05 83.9446 99.7988 84.4589 99.5376 85.0015L99.2144 85.6785L99.7574 86.1953C100.052 86.477 100.36 86.7664 100.673 87.061C101.394 87.738 102.139 88.4383 102.861 89.1618C104.009 90.3091 104.006 90.9784 102.845 92.1438C99.1833 95.8209 95.594 99.4101 92.1753 102.806C91.6452 103.33 91.1693 103.599 90.7607 103.599C90.3366 103.599 89.8401 103.317 89.2867 102.762C88.573 102.046 87.8722 101.294 87.2541 100.627C86.9878 100.343 86.7369 100.069 86.499 99.8184L86.0206 99.3119L83.2355 100.387C80.6883 101.366 78.2833 102.294 75.8861 103.26C75.1723 103.55 74.712 104.433 74.6784 105.121C74.6396 105.919 74.6448 106.72 74.6474 107.493C74.65 108.036 74.6526 108.599 74.6422 109.142C74.6138 110.338 74.0914 110.875 72.9458 110.881C70.3753 110.894 67.7273 110.901 65.0663 110.901ZM44.2774 95.5315C44.5878 95.5315 44.9576 95.6684 45.4101 95.9475C48.9969 98.1697 52.8448 99.7693 56.8454 100.7C58.2263 101.02 58.5263 101.413 58.5392 102.899C58.547 103.769 58.5444 104.64 58.5444 105.508C58.5444 105.901 58.5418 106.294 58.5418 106.687V107.72H71.146L71.3735 106.999C71.3865 106.963 71.3968 106.932 71.4071 106.906C71.4511 106.79 71.5158 106.614 71.5183 106.382C71.5235 105.901 71.5261 105.423 71.5261 104.942C71.5287 104.222 71.5313 103.501 71.5442 102.78C71.5675 101.451 71.8778 101.056 73.1242 100.754C77.3342 99.7357 81.221 98.1181 84.6759 95.9449C85.1259 95.6607 85.4982 95.5237 85.8111 95.5237C86.0542 95.5237 86.4551 95.5986 87.1041 96.2421C87.7429 96.8777 88.3558 97.5522 88.9454 98.2059C89.2066 98.4927 89.46 98.7744 89.7108 99.0457L90.4401 99.8339L99.1471 91.1593L99.2221 91.012C99.5066 90.4538 99.1937 89.9086 98.9661 89.6734C98.617 89.3169 98.2653 88.9654 97.9162 88.614C97.3887 88.0843 96.8637 87.5545 96.3439 87.0171C95.488 86.1333 95.4207 85.5855 96.0491 84.5751C98.2394 81.0609 99.8428 77.2158 100.815 73.1537C101.149 71.7635 101.516 71.4793 103.005 71.4715C103.481 71.4689 103.954 71.4689 104.428 71.4689L107.792 71.4715V58.4738H106.758C106.339 58.4738 105.928 58.4764 105.522 58.4764C105.131 58.479 104.746 58.479 104.366 58.479C103.892 58.479 103.422 58.4764 102.954 58.4687C101.542 58.4454 101.146 58.1405 100.831 56.833C99.8376 52.7115 98.2394 48.8664 96.0776 45.4064C95.3974 44.3185 95.4595 43.7759 96.3698 42.8895C96.9982 42.2771 97.6861 41.6931 98.3481 41.1272C98.6506 40.8714 98.948 40.6182 99.2351 40.365L100.068 39.6388L90.9495 30.5095L90.3625 30.7368C90.2358 30.7704 89.9901 30.848 89.7729 31.0573C89.2997 31.5198 88.829 31.9824 88.3609 32.4449C88.0041 32.7963 87.6472 33.1477 87.2903 33.4992C86.4835 34.2899 86.0723 34.3907 85.8034 34.3907C85.4672 34.3907 85.0224 34.215 84.4432 33.8506C81.1124 31.7601 77.3446 30.1968 73.2406 29.2045C71.839 28.866 71.552 28.4991 71.539 27.021C71.5313 26.1734 71.5339 25.3259 71.5339 24.4706C71.5339 24.083 71.5364 23.6954 71.5364 23.3026V22.269H58.534V23.3026C58.534 23.7367 58.5366 24.1631 58.5392 24.5817C58.5444 25.5016 58.547 26.3698 58.5289 27.2407C58.503 28.4655 58.1565 28.8996 56.9824 29.1761C52.8293 30.1606 48.94 31.7705 45.423 33.9617C44.9524 34.2563 44.5722 34.3984 44.2593 34.3984C44.0137 34.3984 43.6051 34.3157 42.9069 33.6077C42.3017 32.9901 41.7147 32.3286 41.151 31.6904C40.895 31.4009 40.6415 31.1141 40.3907 30.8376L39.6563 30.0237L30.2019 39.6001L30.9802 40.3262C31.2414 40.5691 31.513 40.8197 31.7922 41.073C32.4206 41.6466 33.0697 42.2384 33.6826 42.8585C34.598 43.781 34.6653 44.3263 33.9955 45.3935C31.8284 48.8612 30.2277 52.7037 29.2399 56.8201C28.9244 58.1353 28.5287 58.4454 27.1271 58.4687C26.6461 58.4764 26.1651 58.479 25.6815 58.479C25.291 58.479 24.898 58.4764 24.5049 58.4764C24.1041 58.4738 23.6981 58.4738 23.2921 58.4738H22.2577V71.4715C22.2577 71.4715 25.3169 71.4689 25.71 71.4689C26.2039 71.4689 26.6927 71.4715 27.184 71.4741C28.5287 71.487 28.9295 71.7894 29.2243 73.0219C30.2122 77.1667 31.8259 81.0531 34.024 84.57C34.6575 85.5855 34.5929 86.154 33.7473 86.999C33.1137 87.6321 32.431 88.2496 31.7716 88.8466C31.4742 89.1179 31.1768 89.384 30.8846 89.6528L30.0881 90.3866L38.521 98.6995L38.6529 99.2318H39.4623C39.8968 99.2318 40.2123 98.9527 40.3002 98.8674C40.6415 98.5315 40.9803 98.1956 41.3191 97.8571C41.8621 97.317 42.4052 96.7795 42.956 96.2472C43.6335 95.6064 44.0344 95.5315 44.2774 95.5315Z" fill="#003E4B"/>
<path d="M65.1749 130C61.2442 130 57.2075 129.633 53.1759 128.907C52.9406 128.865 52.6872 128.809 52.3562 128.728C51.3476 128.48 50.8692 127.809 51.0425 126.881C51.2442 125.803 52.2553 125.687 52.682 125.687C52.788 125.687 52.8966 125.695 53.0052 125.705C53.9931 125.819 55.0016 125.953 55.9766 126.082C58.5496 126.423 61.2106 126.775 63.8613 126.824C64.2569 126.832 64.6526 126.834 65.0456 126.834C93.3882 126.837 118.033 107.746 124.979 80.4096C129.752 61.6237 126.236 43.9205 114.531 27.7858C114.407 27.6127 114.273 27.4447 114.125 27.2587C114.058 27.1734 113.986 27.0855 113.911 26.9899L113.412 26.3543L112.675 26.6824C110.906 27.4706 109.217 27.8711 107.653 27.8711C105.229 27.8711 103.068 26.9512 101.045 25.0545C97.4249 21.6617 97.0655 15.8993 100.223 11.9354C102.077 9.60973 104.865 8.27637 107.872 8.27637C109.745 8.27637 111.565 8.80609 113.143 9.81128C117.412 12.5323 118.907 17.9381 116.616 22.3852C115.845 23.8839 116.199 24.8839 116.97 25.9253C126.691 39.0522 131.03 53.7838 129.861 69.7143C128.798 84.2366 123.174 97.5779 113.595 108.297C104.024 119.007 91.3814 126.126 77.0343 128.878C73.1527 129.62 69.1626 130 65.1749 130ZM107.875 11.3539C106.085 11.3539 104.402 12.0542 103.135 13.3256C101.862 14.5995 101.167 16.292 101.172 18.0879C101.182 21.7598 104.185 24.7547 107.859 24.7599C111.544 24.7599 114.557 21.7779 114.586 18.1138C114.614 14.4315 111.643 11.4005 107.96 11.3539H107.875Z" fill="#003E4B"/>
<path d="M88.7669 7.68722C88.3713 7.6743 87.9756 7.4805 87.6834 7.16008C87.3963 6.84483 87.2438 6.4443 87.267 6.06186C87.3162 5.24273 87.9834 4.62256 88.8212 4.62256C88.86 4.62256 88.9014 4.62514 88.9402 4.62773C89.7677 4.68716 90.3806 5.38743 90.3366 6.22466C90.2927 7.01796 89.597 7.68981 88.816 7.68981L88.7669 7.68722Z" fill="#003E4B"/>
<path d="M41.3759 125.388C40.5381 125.383 39.8528 124.708 39.8476 123.887C39.845 123.499 40.0131 123.106 40.3079 122.809C40.6027 122.512 40.9958 122.341 41.3837 122.341H41.4328C42.2681 122.372 42.912 123.06 42.8991 123.91C42.8836 124.765 42.2474 125.385 41.3863 125.385H41.3759V125.388Z" fill="#003E4B"/>
<path d="M64.7068 85.2833C59.6072 85.2833 54.7378 83.26 50.9959 79.5881C47.2306 75.8955 45.017 70.9264 44.7559 65.6008C44.4973 60.3164 46.4031 55.2285 50.1218 51.2749C53.8482 47.311 58.9297 44.9828 64.4301 44.7166C64.7404 44.7011 65.0559 44.6934 65.3662 44.6934C75.9999 44.6934 84.769 53.3395 85.3302 64.3759C85.5913 69.5052 83.7837 74.4872 80.2409 78.3995C76.4886 82.5443 71.3089 84.9784 65.6559 85.2575C65.3404 85.273 65.0197 85.2833 64.7068 85.2833ZM65.0275 47.7942C55.5834 47.7942 47.8694 55.4869 47.8306 64.9418C47.8125 69.4975 49.5968 73.8076 52.8552 77.079C56.1135 80.3504 60.4244 82.1644 64.9939 82.1825H65.0637C74.5 82.1825 82.2114 74.4898 82.2502 65.0323C82.2683 60.4766 80.484 56.1665 77.223 52.8925C73.9647 49.6185 69.6512 47.8097 65.0818 47.7942H65.0275Z" fill="#003E4B"/>
</svg>
